<svg width="223" height="80" viewBox="0 0 223 80" fill="none" xmlns="http://www.w3.org/2000/svg">
<path d="M60.3088 66.7588C57.3581 66.7588 54.5759 66.2318 51.9623 65.178C49.391 64.082 47.1568 62.5434 45.2599 60.5621C43.4051 58.5809 42.014 56.2414 41.0866 53.5435L49.117 49.9393C50.2973 52.5107 51.9202 54.5341 53.9857 56.0095C56.0934 57.4849 58.4119 58.2226 60.9411 58.2226C62.2901 58.2226 63.4493 58.0118 64.4188 57.5903C65.3884 57.1687 66.1472 56.5997 66.6952 55.883C67.2432 55.1243 67.5172 54.239 67.5172 53.2273C67.5172 52.1313 67.1799 51.204 66.5055 50.4452C65.831 49.6443 64.7772 49.0119 63.3439 48.5483L54.1122 45.5132C50.3605 44.2907 47.5362 42.5624 45.6393 40.3282C43.7423 38.0519 42.7939 35.333 42.7939 32.1714C42.7939 29.3893 43.4683 26.9443 44.8172 24.8366C46.2083 22.7289 48.1263 21.0849 50.5713 19.9046C53.0583 18.7243 55.9037 18.1342 59.1074 18.1342C61.9318 18.1342 64.5453 18.6189 66.9481 19.5885C69.3509 20.558 71.4164 21.928 73.1447 23.6985C74.9152 25.469 76.243 27.5977 77.1283 30.0848L69.1612 33.689C68.2759 31.497 66.9481 29.7897 65.1776 28.5673C63.4071 27.3027 61.3838 26.6703 59.1074 26.6703C57.8007 26.6703 56.6414 26.8811 55.6297 27.3027C54.618 27.7242 53.8382 28.3354 53.2902 29.1364C52.7422 29.8951 52.4682 30.7804 52.4682 31.7921C52.4682 32.8881 52.8265 33.8576 53.5431 34.7007C54.2597 35.5016 55.3347 36.1339 56.7679 36.5976L65.8099 39.5062C69.6038 40.7287 72.4281 42.4359 74.2829 44.6279C76.1798 46.8199 77.1283 49.4967 77.1283 52.6583C77.1283 55.3983 76.4116 57.8432 74.9784 59.9931C73.5452 62.1008 71.5639 63.7658 69.0347 64.9883C66.5476 66.1686 63.639 66.7588 60.3088 66.7588ZM107.698 66.7588C104.157 66.7588 100.869 66.1475 97.8339 64.9251C94.7988 63.7026 92.1431 61.9954 89.8668 59.8034C87.6327 57.5692 85.8833 54.9767 84.6187 52.026C83.354 49.0752 82.7217 45.8715 82.7217 42.4149C82.7217 38.9582 83.333 35.7545 84.5554 32.8037C85.8201 29.853 87.5694 27.2816 89.8036 25.0896C92.0799 22.8976 94.7356 21.1903 97.7707 19.9679C100.806 18.7454 104.115 18.1342 107.698 18.1342C111.281 18.1342 114.59 18.7454 117.625 19.9679C120.66 21.1903 123.295 22.8976 125.529 25.0896C127.805 27.2816 129.555 29.853 130.777 32.8037C132.042 35.7545 132.674 38.9582 132.674 42.4149C132.674 45.8715 132.042 49.0752 130.777 52.026C129.513 54.9767 127.742 57.5692 125.466 59.8034C123.232 61.9954 120.597 63.7026 117.562 64.9251C114.527 66.1475 111.239 66.7588 107.698 66.7588ZM107.698 57.9064C109.848 57.9064 111.829 57.5271 113.642 56.7683C115.496 56.0095 117.119 54.9557 118.51 53.6067C119.902 52.2157 120.976 50.5716 121.735 48.6747C122.494 46.7778 122.873 44.6912 122.873 42.4149C122.873 40.1385 122.494 38.073 121.735 36.2182C120.976 34.3213 119.902 32.6773 118.51 31.2862C117.119 29.8951 115.496 28.8413 113.642 28.1247C111.829 27.3659 109.848 26.9865 107.698 26.9865C105.548 26.9865 103.546 27.3659 101.691 28.1247C99.8784 28.8413 98.2765 29.8951 96.8855 31.2862C95.4944 32.6773 94.4195 34.3213 93.6607 36.2182C92.9019 38.073 92.5225 40.1385 92.5225 42.4149C92.5225 44.6912 92.9019 46.7778 93.6607 48.6747C94.4195 50.5716 95.4944 52.2157 96.8855 53.6067C98.2765 54.9557 99.8784 56.0095 101.691 56.7683C103.546 57.5271 105.548 57.9064 107.698 57.9064ZM158.342 66.7588C154.632 66.7588 151.323 65.9789 148.414 64.4192C145.506 62.8595 143.208 60.7308 141.522 58.0329C139.878 55.2929 139.056 52.1946 139.056 48.7379V18.8929H148.857V48.1056C148.857 49.9604 149.257 51.6466 150.058 53.1641C150.901 54.6395 152.039 55.7987 153.473 56.6418C154.906 57.4849 156.529 57.9064 158.342 57.9064C160.196 57.9064 161.819 57.4849 163.21 56.6418C164.644 55.7987 165.761 54.6395 166.562 53.1641C167.405 51.6466 167.826 49.9604 167.826 48.1056V18.8929H177.627V48.7379C177.627 52.1946 176.784 55.2929 175.098 58.0329C173.454 60.7308 171.177 62.8595 168.269 64.4192C165.36 65.9789 162.051 66.7588 158.342 66.7588ZM202.517 66.7588C199.566 66.7588 196.784 66.2318 194.17 65.178C191.599 64.082 189.365 62.5434 187.468 60.5621C185.613 58.5809 184.222 56.2414 183.295 53.5435L191.325 49.9393C192.505 52.5107 194.128 54.5341 196.194 56.0095C198.301 57.4849 200.62 58.2226 203.149 58.2226C204.498 58.2226 205.657 58.0118 206.627 57.5903C207.596 57.1687 208.355 56.5997 208.903 55.883C209.451 55.1243 209.725 54.239 209.725 53.2273C209.725 52.1313 209.388 51.204 208.713 50.4452C208.039 49.6443 206.985 49.0119 205.552 48.5483L196.32 45.5132C192.568 44.2907 189.744 42.5624 187.847 40.3282C185.95 38.0519 185.002 35.333 185.002 32.1714C185.002 29.3893 185.676 26.9443 187.025 24.8366C188.416 22.7289 190.334 21.0849 192.779 19.9046C195.266 18.7243 198.112 18.1342 201.315 18.1342C204.14 18.1342 206.753 18.6189 209.156 19.5885C211.559 20.558 213.624 21.928 215.353 23.6985C217.123 25.469 218.451 27.5977 219.336 30.0848L211.369 33.689C210.484 31.497 209.156 29.7897 207.386 28.5673C205.615 27.3027 203.592 26.6703 201.315 26.6703C200.009 26.6703 198.849 26.8811 197.838 27.3027C196.826 27.7242 196.046 28.3354 195.498 29.1364C194.95 29.8951 194.676 30.7804 194.676 31.7921C194.676 32.8881 195.034 33.8576 195.751 34.7007C196.468 35.5016 197.543 36.1339 198.976 36.5976L208.018 39.5062C211.812 40.7287 214.636 42.4359 216.491 44.6279C218.388 46.8199 219.336 49.4967 219.336 52.6583C219.336 55.3983 218.62 57.8432 217.186 59.9931C215.753 62.1008 213.772 63.7658 211.243 64.9883C208.756 66.1686 205.847 66.7588 202.517 66.7588Z" fill="white"/>
<path fill-rule="evenodd" clip-rule="evenodd" d="M0 13H24.4688V30.9917C24.4688 36.9745 20.1744 41.9542 14.5 43.0167V60.125H17.2188V68.5C17.2188 69.8807 16.0995 71 14.7188 71H9.75C8.36929 71 7.25 69.8807 7.25 68.5V60.125H9.96875V43.0167C4.29434 41.9542 0 36.9745 0 30.9917V13ZM10.795 18.8379C10.795 18.1475 11.3547 17.5879 12.045 17.5879C12.7354 17.5879 13.295 18.1475 13.295 18.8379V30.1016C13.295 30.7919 12.7354 31.3516 12.045 31.3516C11.3547 31.3516 10.795 30.7919 10.795 30.1016V18.8379ZM17.8024 17.5879C17.112 17.5879 16.5524 18.1475 16.5524 18.8379V30.1016C16.5524 30.7919 17.112 31.3516 17.8024 31.3516C18.4927 31.3516 19.0524 30.7919 19.0524 30.1016V18.8379C19.0524 18.1475 18.4927 17.5879 17.8024 17.5879ZM5.03768 18.8379C5.03768 18.1475 5.59733 17.5879 6.28768 17.5879C6.97804 17.5879 7.53768 18.1475 7.53768 18.8379V30.1016C7.53768 30.7919 6.97804 31.3516 6.28768 31.3516C5.59733 31.3516 5.03768 30.7919 5.03768 30.1016V18.8379Z" fill="white"/>
</svg>
